<svg width="491" height="52" viewBox="0 0 491 52" fill="none" xmlns="http://www.w3.org/2000/svg">
<path d="M476.517 8.81769V21.4248H488.177V29.4408H476.517V42.9952H490.072V51.0113H467.627V0.72876H490.072V8.81769H476.517Z" fill="white"/>
<path d="M461.532 0.72876V51.0113H452.569L442.075 24.1939V51.0113H433.112V0.72876H442.075L452.569 28.7121V0.72876H461.532Z" fill="white"/>
<path d="M402.521 47.9506C399.971 45.4729 398.732 41.9021 398.732 37.1653V14.5018C398.732 9.76501 400.044 6.19422 402.74 3.71653C405.363 1.23885 408.934 0 413.307 0C417.533 0 420.885 1.23885 423.436 3.71653C425.987 6.19422 427.298 9.76501 427.298 14.5018V37.1653C427.298 41.8292 425.914 45.4 423.217 47.8777C420.521 50.3554 417.023 51.5942 412.796 51.5942C408.424 51.5942 404.999 50.4283 402.521 47.9506ZM416.95 41.6106C417.825 40.2989 418.335 38.4771 418.335 36.1451V15.9592C418.335 13.4087 417.898 11.4411 417.023 10.1294C416.149 8.81766 414.837 8.08893 413.088 8.08893C411.193 8.08893 409.809 8.74479 408.934 10.0565C408.06 11.3682 407.695 13.3358 407.695 15.9592V36.1451C407.695 41.1005 409.444 43.5053 413.088 43.5053C414.764 43.5053 416.076 42.9223 416.95 41.6106Z" fill="white"/>
<path d="M368.433 47.9506C365.883 45.4729 364.644 41.9021 364.644 37.1653V14.5018C364.644 9.76501 365.956 6.19422 368.652 3.71653C371.275 1.23885 374.846 0 379.218 0C383.372 0 386.724 1.23885 389.348 3.64366C391.898 6.12135 393.21 9.76501 393.21 14.7204V16.2507H384.247V14.7933C384.247 12.5342 383.737 10.8581 382.789 9.76501C381.842 8.67191 380.603 8.08893 379 8.08893C377.105 8.08893 375.721 8.74479 374.846 10.0565C373.972 11.3682 373.607 13.3358 373.607 15.9592V36.1451C373.607 41.1005 375.356 43.5053 379 43.5053C380.603 43.5053 381.842 42.9952 382.789 41.8292C383.737 40.7361 384.247 39.06 384.247 36.8738V35.5621H393.137V36.9467C393.137 41.8292 391.753 45.4729 389.056 47.9506C386.36 50.4283 382.935 51.5942 378.708 51.5942C374.336 51.5942 370.911 50.4283 368.433 47.9506Z" fill="white"/>
<path d="M334.345 47.9506C331.795 45.4729 330.556 41.9021 330.556 37.1653V14.5018C330.556 9.76501 331.867 6.19422 334.564 3.71653C337.187 1.23885 340.758 0 345.13 0C349.284 0 352.636 1.23885 355.26 3.64366C357.81 6.12135 359.122 9.76501 359.122 14.7204V16.2507H350.159V14.7933C350.159 12.5342 349.648 10.8581 348.701 9.76501C347.754 8.67191 346.515 8.08893 344.912 8.08893C343.017 8.08893 341.632 8.74479 340.758 10.0565C339.883 11.3682 339.519 13.3358 339.519 15.9592V36.1451C339.519 41.1005 341.268 43.5053 344.912 43.5053C346.515 43.5053 347.754 42.9952 348.701 41.8292C349.648 40.7361 350.159 39.06 350.159 36.8738V35.5621H359.049V36.9467C359.049 41.8292 357.664 45.4729 354.968 47.9506C352.272 50.4283 348.847 51.5942 344.62 51.5942C340.248 51.5942 336.823 50.4283 334.345 47.9506Z" fill="white"/>
<path d="M316.382 41.2463H304.65L302.609 51.0113H293.281L306.18 0.72876H314.925L327.751 51.0113H318.423L316.382 41.2463ZM314.779 33.2302L310.552 12.8257L306.326 33.2302H314.779Z" fill="white"/>
<path d="M295.674 8.81769H287.002V51.0113H278.111V8.81769H269.366V0.72876H295.674V8.81769Z" fill="white"/>
<path d="M228.807 47.9506C226.256 45.4729 225.018 41.9021 225.018 37.1653V14.5018C225.018 9.76501 226.329 6.19422 229.026 3.71653C231.649 1.23885 235.22 0 239.592 0C243.819 0 247.171 1.23885 249.722 3.71653C252.272 6.19422 253.584 9.76501 253.584 14.5018V37.1653C253.584 41.8292 252.199 45.4 249.503 47.8777C246.807 50.3554 243.309 51.5942 239.082 51.5942C234.71 51.5942 231.285 50.4283 228.807 47.9506ZM243.236 41.6106C244.11 40.2989 244.62 38.4771 244.62 36.1451V15.9592C244.62 13.4087 244.183 11.4411 243.309 10.1294C242.434 8.81766 241.123 8.08893 239.374 8.08893C237.479 8.08893 236.094 8.74479 235.22 10.0565C234.345 11.3682 233.981 13.3358 233.981 15.9592V36.1451C233.981 41.1005 235.73 43.5053 239.374 43.5053C241.05 43.5053 242.361 42.9223 243.236 41.6106Z" fill="white"/>
<path d="M191.577 0.72876H205.495C209.722 0.72876 213.074 1.96761 215.625 4.37242C218.175 6.85011 219.487 10.4209 219.487 15.1577V36.5824C219.487 41.3191 218.103 44.8899 215.479 47.3676C212.783 49.8453 209.285 51.0113 205.058 51.0113H191.577V0.72876ZM205.277 42.9952C206.953 42.9952 208.265 42.3394 209.139 41.0276C210.014 39.7159 210.524 37.8941 210.524 35.5622V16.688C210.524 14.1374 210.086 12.1699 209.212 10.8581C208.337 9.54642 207.026 8.81769 205.277 8.81769H200.467V42.9952H205.277Z" fill="white"/>
<path d="M171.321 30.8254H167.021V51.0113H158.058V0.72876H171.758C176.713 0.72876 180.211 1.96761 182.252 4.29955C184.292 6.70436 185.385 10.4938 185.385 15.7406C185.385 19.0928 184.875 21.9349 184.001 24.1211C183.053 26.3801 181.523 28.0562 179.483 29.1493L186.989 51.0113H177.661L171.321 30.8254ZM167.021 22.8093H171.685C173.434 22.8093 174.673 22.2264 175.402 21.0604C176.058 19.8944 176.422 18.0726 176.422 15.7406C176.422 13.4087 176.058 11.6597 175.402 10.4938C174.746 9.3278 173.507 8.74481 171.685 8.74481H167.021V22.8093Z" fill="white"/>
<path d="M143.166 41.2463H131.434L129.393 51.0113H120.065L132.964 0.72876H141.709L154.534 51.0113H145.207L143.166 41.2463ZM141.563 33.2302L137.336 12.8257L133.11 33.2302H141.563Z" fill="white"/>
<path d="M116.594 0.72876V51.0113H107.631L97.137 24.1939V51.0113H88.1736V0.72876H97.137L107.631 28.7121V0.72876H116.594Z" fill="white"/>
<path d="M57.5834 47.9506C55.0328 45.4729 53.7939 41.9021 53.7939 37.1653V14.5018C53.7939 9.76501 55.1057 6.19422 57.802 3.71653C60.4254 1.23885 63.9962 0 68.3686 0C72.5952 0 75.9474 1.23885 78.498 3.71653C81.0485 6.19422 82.3602 9.76501 82.3602 14.5018V37.1653C82.3602 41.8292 80.9757 45.4 78.2793 47.8777C75.583 50.3554 72.0851 51.5942 67.8585 51.5942C63.4861 51.5942 60.061 50.4283 57.5834 47.9506ZM72.0123 41.6106C72.8867 40.2989 73.3968 38.4771 73.3968 36.1451V15.9592C73.3968 13.4087 72.9596 11.4411 72.0851 10.1294C71.2106 8.81766 69.8989 8.08893 68.15 8.08893C66.2553 8.08893 64.8707 8.74479 63.9962 10.0565C63.1217 11.3682 62.7574 13.3358 62.7574 15.9592V36.1451C62.7574 41.1005 64.5063 43.5053 68.15 43.5053C69.8261 43.5053 71.1378 42.9223 72.0123 41.6106Z" fill="white"/>
<path d="M35.6486 8.81769V21.4248H47.3083V29.4408H35.6486V42.9952H49.203V51.0113H26.7581V0.72876H49.203V8.81769H35.6486Z" fill="white"/>
<path d="M0 0.72876H8.9634V42.9952H22.445V51.0113H0V0.72876Z" fill="white"/>
</svg>
